<?xml version="1.0" encoding="utf-8"?>
<!-- Generator: Adobe Illustrator 22.0.1, SVG Export Plug-In . SVG Version: 6.00 Build 0)  -->
<svg version="1.1" id="Calque_1" xmlns="http://www.w3.org/2000/svg" xmlns:xlink="http://www.w3.org/1999/xlink" x="0px" y="0px"
	 viewBox="0 0 535.8 116.1" style="enable-background:new 0 0 535.8 116.1;" xml:space="preserve">
<style type="text/css">
	.st0{fill:#FDFDFD;}
	.st1{fill:#FDFDFD;stroke:#323232;stroke-width:2;stroke-linecap:round;stroke-linejoin:round;stroke-miterlimit:10;}
	.st2{fill:#323232;}
	.st3{fill:#E1011B;}
	.st4{fill:#019135;stroke:#1C1C1B;stroke-linecap:round;stroke-linejoin:round;stroke-miterlimit:10;}
	.st5{fill:#FDFDFD;stroke:#1C1C1B;stroke-linecap:round;stroke-linejoin:round;stroke-miterlimit:10;}
	.st6{fill:#E1011B;stroke:#1C1C1B;stroke-linecap:round;stroke-linejoin:round;stroke-miterlimit:10;}
</style>
<g>
	<path class="st0" d="M347.9,32.3H184.3c-3.4,0-6.2-2.8-6.2-6.2V7.4c0-3.4,2.8-6.2,6.2-6.2H348c3.4,0,6.2,2.8,6.2,6.2v18.7
		C354.1,29.5,351.3,32.3,347.9,32.3z"/>
	<g>
		<polyline class="st1" points="354.1,15.6 484.4,15.4 484.4,113.5 266.6,114.5 48.8,114.7 48.8,16.7 178.1,16 		"/>
	</g>
	<g>
		<g>
			<path class="st2" d="M105.1,44.1l12.3-1.7l-5.9,27.7c2.7-0.2,5.1-1.4,7.3-3.5c2.2-2.1,4-4.7,5.3-7.8s1.9-6.1,1.9-9.1
				c0-3.3-0.9-6-2.6-8.1s-4.3-3.1-7.7-3.1c-6.7,0-12,1.8-15.8,5.3s-5.7,8.5-5.7,14.8c0,2,0.2,3.5,0.6,4.3s0.6,1.3,0.6,1.4
				c-3,0-5.2-0.6-6.7-1.9c-1.5-1.2-2.2-3.3-2.2-6.2c0-3.5,1.5-7,4.4-10.3s6.6-6,11.1-8.1s9.1-3.1,13.6-3.1c4.4,0,8,0.7,10.9,2.2
				c2.9,1.5,5.1,3.5,6.5,5.9c1.4,2.5,2.1,5.2,2.1,8.2c0,3.6-1,7.1-2.9,10.5c-2,3.4-4.8,6.2-8.4,8.4c-3.6,2.2-7.8,3.3-12.6,3.3h-0.4
				l-5.1,23.6H93.9L105.1,44.1z"/>
			<path class="st2" d="M135.3,94.8c-1.6-1.7-2.4-4.1-2.4-7.5c0-1.4,0.2-3.2,0.7-5.4l5.6-26.6h11.9l-6,28.2
				c-0.2,0.8-0.3,1.7-0.3,2.7c0,1.1,0.3,1.9,0.8,2.4s1.4,0.7,2.6,0.7c1,0,1.9-0.2,2.7-0.5c-0.2,2.8-1.2,4.9-2.9,6.3
				c-1.7,1.5-3.8,2.2-6.2,2.2C139.1,97.3,137,96.5,135.3,94.8z M142.8,49c-1.3-1.3-1.9-2.8-1.9-4.6s0.6-3.4,1.9-4.7
				c1.3-1.3,2.8-1.9,4.6-1.9s3.4,0.6,4.7,1.9c1.3,1.3,1.9,2.9,1.9,4.7s-0.6,3.4-1.9,4.6c-1.3,1.3-2.9,1.9-4.7,1.9S144,50.3,142.8,49
				z M172,59.9h-4.6c-1.5,0-2.7,0.1-3.4,0.2c-0.7,0.2-1.1,0.5-1.1,1.1c0,0.1,0.2,0.2,0.5,0.4c0.3,0.1,0.5,0.6,0.5,1.5
				c0,1.4-0.4,2.5-1.3,3.3c-0.9,0.7-1.9,1.1-3.1,1.1c-1,0-1.9-0.3-2.7-1c-0.7-0.6-1.1-1.5-1.1-2.7s0.4-2.4,1.2-3.7s1.9-2.4,3.4-3.3
				c1.5-0.9,3.1-1.3,5-1.3h21.3l-20.3,35c0.3,0,0.9,0.1,1.8,0.2c1.9,0.2,3.4,0.3,4.5,0.3c2.4,0,3.7-0.6,3.9-1.7
				c-0.5-0.1-0.9-0.2-1.2-0.5s-0.4-0.7-0.4-1.2c0-0.9,0.4-1.7,1.2-2.4c0.8-0.7,2-1.1,3.4-1.1c1.2,0,2.1,0.4,2.7,1.1
				c0.6,0.7,0.9,1.7,0.9,2.9c0,1.3-0.4,2.7-1.2,4.1s-2,2.5-3.6,3.4c-1.5,0.9-3.3,1.4-5.3,1.4h-22L172,59.9z"/>
			<path class="st2" d="M207.5,59.9h-4.6c-1.5,0-2.7,0.1-3.4,0.2c-0.7,0.2-1.1,0.5-1.1,1.1c0,0.1,0.2,0.2,0.5,0.4
				c0.3,0.1,0.5,0.6,0.5,1.5c0,1.4-0.4,2.5-1.3,3.3c-0.9,0.7-1.9,1.1-3.1,1.1c-1.1,0-1.9-0.3-2.7-1c-0.7-0.6-1.1-1.5-1.1-2.7
				s0.4-2.4,1.2-3.7s1.9-2.4,3.4-3.3c1.5-0.9,3.1-1.3,5-1.3h21.3l-20.3,35c0.3,0,0.9,0.1,1.8,0.2c1.9,0.2,3.4,0.3,4.5,0.3
				c2.4,0,3.7-0.6,3.9-1.7c-0.5-0.1-0.9-0.2-1.2-0.5s-0.4-0.7-0.4-1.2c0-0.9,0.4-1.7,1.2-2.4c0.8-0.7,2-1.1,3.4-1.1
				c1.2,0,2.1,0.4,2.7,1.1c0.6,0.7,0.9,1.7,0.9,2.9c0,1.3-0.4,2.7-1.2,4.1s-2,2.5-3.6,3.4c-1.5,0.9-3.3,1.4-5.3,1.4h-22L207.5,59.9z
				"/>
			<path class="st2" d="M223.9,94.1c-2.1-2.2-3.1-5.5-3.1-10.1c0-4.1,0.8-8.4,2.4-12.9c1.6-4.5,4.1-8.3,7.3-11.4
				c3.2-3.1,7.1-4.7,11.6-4.7c2.3,0,3.9,0.4,5.1,1.2c1.1,0.8,1.7,1.8,1.7,3.1v0.6l0.9-4.4h11.9l-6,28.2c-0.2,0.8-0.3,1.7-0.3,2.7
				c0,1.1,0.3,1.9,0.8,2.4s1.4,0.7,2.6,0.7c0.8,0,1.4-0.1,1.8-0.3c-1.2,3.1-2.4,5.3-3.5,6.5s-2.7,1.9-4.8,1.9c-2.3,0-4.1-0.7-5.5-2
				c-1.4-1.4-2.3-3.2-2.6-5.7c-3.4,5.1-7.5,7.7-12.3,7.7C228.6,97.3,226,96.2,223.9,94.1z M241.2,87.3c1.4-1.3,2.3-3.1,2.8-5.3
				l4-18.7c0-0.7-0.3-1.4-0.8-2.1c-0.6-0.7-1.4-1-2.6-1c-2.2,0-4.2,1.3-6,3.9s-3.1,5.7-4.1,9.3c-1,3.6-1.5,6.8-1.5,9.6
				c0,2.8,0.4,4.5,1.2,5.3s1.8,1.2,2.9,1.2C238.5,89.3,239.9,88.6,241.2,87.3z"/>
			<path class="st2" d="M303.3,42h-1c-4.9,0-8.7,1.2-11.5,3.7c-2.7,2.5-4.1,6.8-4.1,13.1c0,2,0.2,3.5,0.6,4.3s0.6,1.3,0.6,1.4
				c-3,0-5.2-0.6-6.7-1.9c-1.5-1.2-2.2-3.3-2.2-6.2c0-3.9,1-7.5,2.9-10.7s5-5.8,9.2-7.8s9.6-3,16.1-3c3.6,0,7.6,0.3,11.8,1
				c3.5,0.6,6.7,0.9,9.4,0.9c3.5,0,6.7-0.6,9.6-1.7c-0.1,3.6-1,6.2-2.7,8c-1.7,1.7-4.3,2.6-7.6,2.6c-1.8,0-3.5-0.1-5.3-0.4
				c-1.8-0.3-4.3-0.7-7.5-1.4l-11.4,53.2h-11.9L303.3,42z"/>
			<path class="st2" d="M320.7,94c-2.4-2.1-3.6-5.4-3.6-9.9c0-3.8,0.8-7.9,2.3-12.5s4-8.5,7.5-11.9c3.4-3.3,7.7-5,12.9-5
				c7.1,0,10.6,4.4,10.6,13.3l0,0c0.2,0.1,0.5,0.1,0.9,0.1c1.8,0,3.9-0.5,6.3-1.5s4.5-2.1,6.5-3.5l0.7,2.2c-1.6,1.7-3.7,3.2-6.3,4.4
				c-2.6,1.2-5.4,2-8.4,2.5c-0.4,5-1.6,9.4-3.4,13.2c-1.8,3.8-4.2,6.7-7,8.7c-2.9,2-6,3.1-9.4,3.1C326.3,97.1,323.1,96.1,320.7,94z
				 M337.7,87.4c1.3-1.5,2.5-3.6,3.5-6.2s1.7-5.5,2.2-8.7c-1.5-0.3-2.2-1.5-2.2-3.5c0-2.3,0.9-3.8,2.6-4.5c-0.1-1.8-0.4-3.1-0.8-3.8
				s-1.2-1-2.3-1c-1.8,0-3.6,1.3-5.3,4c-1.7,2.7-3.1,5.8-4.1,9.5c-1,3.7-1.6,7-1.6,9.8c0,2.7,0.3,4.4,0.9,5.3s1.7,1.4,3.3,1.4
				C335.1,89.7,336.4,88.9,337.7,87.4z"/>
			<path class="st2" d="M356.5,94.8c-1.6-1.7-2.4-4.1-2.4-7.5c0-1.4,0.2-3.2,0.7-5.4l5.6-26.6h11.9l-6,28.2
				c-0.2,0.7-0.2,1.4-0.2,2.1c0,2.4,0.8,3.6,2.5,3.6c1.5,0,2.9-0.6,4-1.9s2-3.1,2.7-5.3l5.6-26.6h11.9l-6,28.2
				c-0.3,1.4-0.4,2.4-0.4,3c0,1.8,0.9,2.7,2.8,2.7c2.5,0,4.9-1.6,7.1-4.8c2.2-3.2,3.9-7,5.3-11.4c1.3-4.4,2-8.2,2-11.4
				c-0.1,0.3-0.5,0.5-1.1,0.6s-1.1,0.2-1.6,0.2c-0.9,0-1.7-0.4-2.2-1.3c-0.5-0.9-0.8-1.9-0.8-2.9c0-1.3,0.4-2.4,1.3-3.2
				s2.1-1.2,3.9-1.2s3.1,0.7,4,2c0.8,1.4,1.2,3.1,1.2,5.2c0,5-0.9,10.3-2.6,16s-4.3,10.5-7.9,14.5c-3.5,4-7.9,6-13.2,6
				c-2.7,0-4.9-0.6-6.6-1.7c-1.7-1.2-2.8-2.9-3.3-5.2c-3.1,4.6-7,7-11.8,7C360.3,97.3,358.1,96.5,356.5,94.8z"/>
			<path class="st2" d="M431.6,94.7c-1.3-1.8-2-4-2-6.7c0-1.2,0.1-2.5,0.4-3.9c0.3-1.5,0.6-2.9,0.9-4.3s0.5-2.3,0.6-2.7
				c0.4-1.9,0.9-3.8,1.2-5.7c0.4-1.9,0.6-3.4,0.6-4.6c0-2.8-1-4.2-3-4.2c-1.4,0-2.7,0.7-3.8,2.1c-1.1,1.4-2,3.2-2.7,5.5l-5.6,26.6
				h-11.9l8.8-41.4H427l-0.9,4.3c2.8-3.1,6-4.6,9.7-4.6c2.8,0,5.1,0.8,6.7,2.3c1.7,1.5,2.5,3.9,2.5,7c0,1.6-0.2,3.4-0.6,5.3
				c-0.4,2-0.9,4.4-1.7,7.2c-0.4,1.7-0.8,3.4-1.2,5c-0.4,1.6-0.5,2.9-0.5,3.9c0,1.1,0.2,2,0.7,2.6s1.4,0.9,2.6,0.9
				c1.3,0,2.2-0.2,2.7-0.5c-0.3,2.8-1.3,4.9-3,6.4c-1.7,1.4-3.7,2.2-6.1,2.2C435.1,97.3,432.9,96.4,431.6,94.7z"/>
		</g>
	</g>
	<g>
		<g>
			<path class="st3" d="M193.1,6.6l5,0.2l2.6-0.1c0.1,0.3,0.1,0.6,0.1,1c0,0.4-0.1,0.7-0.2,0.9c-0.1,0.2-0.3,0.3-0.6,0.3
				s-1,0-1.9-0.1c-1-0.1-1.7-0.1-2.2-0.1L195,8.8c-0.1,0.6-0.5,2.7-1.2,6.2c1.3-0.1,2.4-0.2,3.2-0.2s1.5,0.1,2,0.2
				c0,0.7-0.2,1.3-0.5,1.8c-0.7-0.2-1.6-0.2-2.6-0.2s-1.8,0.1-2.5,0.2c-0.6,3.1-0.9,5.4-0.9,7v0.4c-0.6,0.3-1.9,0.5-3.9,0.5h-0.3
				c0-1.2,0.4-3.6,1.2-7.2s1.3-6.3,1.4-7.9c0-0.3-0.1-0.6-0.3-1s-0.3-0.7-0.5-0.9l-0.3-0.4l0.1-0.4C190.9,6.7,191.9,6.6,193.1,6.6z"
				/>
			<path class="st3" d="M207.5,14c0,0,0.1-0.3,0.3-0.7c0.8,0,1.9,0.2,3.2,0.7c-0.4,1.4-0.8,2.9-1,4.4c-0.3,1.5-0.4,2.6-0.4,3.3
				c0,0.7,0.1,1,0.2,1c0.1,0,0.5-0.2,1.1-0.5l0.3-0.2l0.5,0.9c-0.2,0.1-0.4,0.3-0.6,0.5c-0.2,0.2-0.7,0.5-1.4,0.8s-1.3,0.5-1.8,0.5
				c-1.1,0-1.7-0.5-1.8-1.4c-1.1,1-2.1,1.4-2.9,1.4c-0.9,0-1.6-0.3-2.2-1c-0.6-0.7-0.9-1.7-0.9-3.2c0-2.3,0.5-4.1,1.4-5.4
				s2.1-2,3.4-2C205.7,13.2,206.6,13.5,207.5,14z M204.6,22.7c0.4,0,0.9-0.2,1.4-0.5c0.1-2.4,0.5-4.8,1.2-7.1
				c-0.5-0.2-0.9-0.3-1.3-0.3c-0.6,0-1.1,0.6-1.6,1.8c-0.4,1.2-0.6,2.5-0.6,4C203.7,21.9,204,22.7,204.6,22.7z"/>
			<path class="st3" d="M220.1,13.5c0,0.4-0.2,0.9-0.4,1.5c-0.6-0.1-1.3-0.1-1.8-0.1h-0.5c-0.8,3.8-1.2,6.1-1.2,7.1
				c0,0.5,0.1,0.7,0.3,0.7s0.8-0.2,1.7-0.6l0.5,0.8c-1.5,1.3-2.9,1.9-4.2,1.9c-0.6,0-1.1-0.2-1.5-0.6s-0.6-0.9-0.6-1.5
				s0.1-1.3,0.2-2.1c0.1-0.8,0.3-1.7,0.6-2.9s0.4-2,0.6-2.7c-0.6,0.1-1.1,0.1-1.4,0.2c0-0.2-0.1-0.5-0.1-0.8s0-0.6,0.1-0.9h1.6
				c0.1-0.9,0.2-1.8,0.2-2.6v-0.8V10c1.3-0.5,2.6-0.7,3.7-0.7c0.1,0.3,0.1,0.8,0.1,1.3s-0.1,1.5-0.4,2.9H220.1z"/>
			<path class="st3" d="M228,13.5c0,0.4-0.2,0.9-0.4,1.5c-0.6-0.1-1.3-0.1-1.8-0.1h-0.5c-0.8,3.8-1.2,6.1-1.2,7.1
				c0,0.5,0.1,0.7,0.3,0.7s0.8-0.2,1.7-0.6l0.5,0.8c-1.5,1.3-2.9,1.9-4.2,1.9c-0.6,0-1.1-0.2-1.5-0.6s-0.6-0.9-0.6-1.5
				s0.1-1.3,0.2-2.1c0.1-0.8,0.3-1.7,0.6-2.9s0.4-2,0.6-2.7c-0.6,0.1-1.1,0.1-1.4,0.2c0-0.2-0.1-0.5-0.1-0.8s0-0.6,0.1-0.9h1.6
				c0.1-0.9,0.2-1.8,0.2-2.6v-0.8V10c1.3-0.5,2.6-0.7,3.7-0.7c0.1,0.3,0.1,0.8,0.1,1.3s-0.1,1.5-0.4,2.9H228z"/>
			<path class="st3" d="M229.8,24.6c-1.4,0-2.1-0.8-2.1-2.3c0-0.4,0.2-1.5,0.5-3.2c0.3-1.8,0.5-3.3,0.5-4.5c0-0.3,0-0.5-0.1-0.7
				c0.9-0.4,2.2-0.5,3.8-0.5c0.1,0.2,0.1,0.6,0.1,1.2s-0.2,1.8-0.6,3.6c-0.4,1.8-0.6,3-0.6,3.5s0.2,0.8,0.7,0.8s1.2-0.3,1.9-0.8
				c0.1-1,0.4-3.6,1-7.9c0.6-0.2,1.7-0.4,3.2-0.4h0.5c-0.3,1.3-0.6,3.1-0.9,5.5c-0.3,2.4-0.6,4.1-0.7,5c-0.4,1.9-1,3.4-2,4.6
				s-2.2,1.8-3.8,1.8c-0.6,0-1.2-0.2-1.7-0.5s-0.8-0.7-0.8-1.2c0-0.7,0.4-1.3,1.2-1.9s2-1,3.4-1.3c0.2-0.7,0.3-1.5,0.4-2.2
				C232.4,24.1,231.1,24.6,229.8,24.6z M231.1,27.3c-0.6,0.3-0.9,0.7-0.9,1s0.2,0.5,0.5,0.5s0.8-0.2,1.2-0.5s0.8-0.9,1.1-1.7
				C232.3,26.7,231.6,26.9,231.1,27.3z"/>
			<path class="st3" d="M249.5,6.6l5,0.2l2.6-0.1c0.1,0.3,0.1,0.6,0.1,1c0,0.4-0.1,0.7-0.2,0.9c-0.1,0.2-0.3,0.3-0.6,0.3
				c-0.3,0-1,0-1.9-0.1c-1-0.1-1.7-0.1-2.2-0.1l-0.9,0.1c-0.1,0.6-0.5,2.7-1.2,6.2c1.3-0.1,2.4-0.2,3.2-0.2s1.5,0.1,2,0.2
				c0,0.7-0.2,1.3-0.5,1.8c-0.7-0.2-1.6-0.2-2.6-0.2s-1.8,0.1-2.5,0.2c-0.6,3.1-0.9,5.4-0.9,7v0.4c-0.6,0.3-1.9,0.5-3.9,0.5h-0.3
				c0-1.2,0.4-3.6,1.2-7.2s1.3-6.3,1.4-7.9c0-0.3-0.1-0.6-0.3-1s-0.3-0.7-0.5-0.9l-0.3-0.4l0.1-0.4C247.2,6.7,248.3,6.6,249.5,6.6z"
				/>
			<path class="st3" d="M263.9,14c0,0,0.1-0.3,0.3-0.7c0.8,0,1.9,0.2,3.2,0.7c-0.4,1.4-0.8,2.9-1,4.4c-0.3,1.5-0.4,2.6-0.4,3.3
				c0,0.7,0.1,1,0.2,1s0.5-0.2,1.1-0.5l0.3-0.2l0.4,1c-0.2,0.1-0.4,0.3-0.6,0.5s-0.7,0.5-1.4,0.8c-0.7,0.3-1.3,0.5-1.8,0.5
				c-1.1,0-1.7-0.5-1.8-1.4c-1.1,1-2.1,1.4-2.9,1.4c-0.9,0-1.6-0.3-2.2-1c-0.6-0.7-0.9-1.7-0.9-3.2c0-2.3,0.5-4.1,1.4-5.4
				c0.9-1.3,2.1-2,3.4-2C262.1,13.2,263,13.5,263.9,14z M261,22.7c0.4,0,0.9-0.2,1.4-0.5c0.1-2.4,0.5-4.8,1.2-7.1
				c-0.5-0.2-0.9-0.3-1.3-0.3c-0.6,0-1.1,0.6-1.6,1.8c-0.4,1.2-0.6,2.5-0.6,4C260,21.9,260.3,22.7,261,22.7z"/>
			<path class="st3" d="M269,24.6h-0.2c0-0.1-0.1-0.4-0.1-0.9s0.2-1.8,0.7-3.9s0.7-3.3,0.7-3.6c0-0.5-0.2-1.1-0.7-1.7l-0.2-0.3v-0.3
				c0.9-0.3,2.4-0.4,4.4-0.4c0.2,0.4,0.3,1.1,0.3,1.9c0.2-0.3,0.6-0.7,1.2-1.2s1.2-0.8,1.8-0.8c0.9,0,1.4,0.8,1.4,2.4
				c-0.1,0.1-0.2,0.2-0.3,0.4c-0.1,0.2-0.4,0.4-0.9,0.7s-0.9,0.5-1.3,0.5c0,0-0.2-0.2-0.4-0.7c-0.3-0.5-0.5-0.7-0.6-0.7
				c-0.4,0.2-0.8,0.4-1.1,0.8c-0.8,3.5-1.2,5.8-1.2,6.8c0,0.4,0,0.6,0,0.8C272,24.5,270.8,24.6,269,24.6z"/>
			<path class="st3" d="M286.2,13.5c0,0.4-0.2,0.9-0.4,1.5c-0.6-0.1-1.3-0.1-1.8-0.1h-0.5c-0.8,3.8-1.2,6.1-1.2,7.1
				c0,0.5,0.1,0.7,0.3,0.7s0.8-0.2,1.7-0.6l0.5,0.8c-1.5,1.3-2.9,1.9-4.2,1.9c-0.6,0-1.1-0.2-1.5-0.6s-0.6-0.9-0.6-1.5
				s0.1-1.3,0.2-2.1c0.1-0.8,0.3-1.7,0.6-2.9s0.4-2,0.6-2.7c-0.6,0.1-1.1,0.1-1.4,0.2c0-0.2-0.1-0.5-0.1-0.8s0-0.6,0.1-0.9h1.6
				c0.1-0.9,0.2-1.8,0.2-2.6v-0.8V10c1.3-0.5,2.6-0.7,3.7-0.7c0.1,0.3,0.1,0.8,0.1,1.3s-0.1,1.5-0.4,2.9H286.2z"/>
			<path class="st3" d="M292.3,6.7c0,1.3-0.4,3.8-1.3,7.6c1-0.7,1.9-1.1,2.8-1.1c0.8,0,1.5,0.3,2.1,1s0.9,1.7,0.9,3.1
				c0,2.4-0.5,4.2-1.4,5.5s-2,1.9-3.4,1.9c-0.5,0-1-0.1-1.5-0.2s-0.9-0.2-1.1-0.4l-0.4-0.2c-1.1,0.4-2.1,0.6-3.2,0.6
				c-0.1-0.1-0.2-0.5-0.2-1.2s0.5-3.2,1.4-7.3c1-4.1,1.4-7,1.4-8.5c0-0.3,0-0.6-0.1-1c1.3-0.5,2.6-0.7,3.8-0.7
				C292.3,6.1,292.3,6.4,292.3,6.7z M292.1,15.4c-0.3,0-0.8,0.2-1.5,0.5c-0.8,3.3-1.2,5.6-1.3,7.1c0.5,0.2,1,0.3,1.5,0.3
				c0.6,0,1.2-0.6,1.6-1.8s0.6-2.5,0.6-3.9S292.7,15.4,292.1,15.4z"/>
			<path class="st3" d="M297.8,20.1c0-2.1,0.6-3.8,1.9-5s2.7-1.8,4.4-1.8c1,0,1.8,0.2,2.5,0.7c0.6,0.5,1,1.1,1,2
				c0,0.8-0.2,1.5-0.6,2.1s-0.9,1-1.5,1.3c-1.2,0.6-2.3,1-3.3,1.1l-0.6,0.1c0.1,1.6,0.8,2.4,2,2.4c0.4,0,0.8-0.1,1.3-0.3
				s0.8-0.4,1.1-0.6l0.4-0.3l0.6,0.8c-0.1,0.2-0.4,0.4-0.8,0.7s-0.8,0.6-1.1,0.8c-1,0.5-2.1,0.8-3.2,0.8c-1.2,0-2.1-0.4-2.8-1.2
				S297.8,21.6,297.8,20.1z M303.5,18.2c0.5-0.6,0.8-1.3,0.8-2.2s-0.3-1.4-0.8-1.4c-0.6,0-1.1,0.5-1.5,1.6s-0.5,2.1-0.5,3.1
				C302.3,19.1,303,18.8,303.5,18.2z"/>
			<path class="st3" d="M315.7,14c0,0,0.1-0.3,0.3-0.7c0.8,0,1.9,0.2,3.2,0.7c-0.4,1.4-0.8,2.9-1,4.4c-0.3,1.5-0.4,2.6-0.4,3.3
				c0,0.7,0.1,1,0.2,1s0.5-0.2,1.1-0.5l0.3-0.2l0.5,0.9c-0.2,0.1-0.4,0.3-0.6,0.5s-0.7,0.5-1.4,0.8c-0.7,0.3-1.3,0.5-1.8,0.5
				c-1.1,0-1.7-0.5-1.8-1.4c-1.1,1-2.1,1.4-2.9,1.4s-1.6-0.3-2.2-1s-0.9-1.7-0.9-3.2c0-2.3,0.5-4.1,1.4-5.4s2.1-2,3.4-2
				C313.9,13.2,314.8,13.5,315.7,14z M312.8,22.7c0.4,0,0.9-0.2,1.4-0.5c0.1-2.4,0.5-4.8,1.2-7.1c-0.5-0.2-0.9-0.3-1.3-0.3
				c-0.6,0-1.1,0.6-1.6,1.8c-0.4,1.2-0.6,2.5-0.6,4C311.8,21.9,312.1,22.7,312.8,22.7z"/>
			<path class="st3" d="M320.8,24.6h-0.2c0-0.1-0.1-0.4-0.1-0.9s0.2-1.8,0.7-3.9s0.7-3.3,0.7-3.6c0-0.5-0.2-1.1-0.7-1.7l-0.2-0.3
				v-0.3c0.9-0.3,2.4-0.4,4.4-0.4c0.2,0.4,0.3,1.1,0.3,1.9c0.2-0.3,0.6-0.7,1.2-1.2s1.2-0.8,1.8-0.8c0.9,0,1.4,0.8,1.4,2.4
				c-0.1,0.1-0.2,0.2-0.3,0.4c-0.1,0.2-0.4,0.4-0.9,0.7s-0.9,0.5-1.3,0.5c0,0-0.2-0.2-0.4-0.7s-0.5-0.7-0.6-0.7
				c-0.4,0.2-0.8,0.4-1.1,0.8c-0.8,3.5-1.2,5.8-1.2,6.8c0,0.4,0,0.6,0,0.8C323.8,24.5,322.6,24.6,320.8,24.6z"/>
			<path class="st3" d="M335,8.1c0,1.6-0.9,3.4-2.8,5.5l-1.2-0.7c0.9-1.4,1.4-2.4,1.5-3.1L331,8.9c0-0.6,0.1-1.2,0.4-1.8
				s0.6-1,0.9-1.3c1,0,1.7,0.3,2.3,0.8C334.8,6.9,335,7.4,335,8.1z"/>
			<path class="st3" d="M343.6,21.2c0,1.1-0.5,1.9-1.4,2.6s-2,1-3.2,1s-2.2-0.3-2.9-0.8c-0.7-0.5-1.1-1-1.1-1.3
				c0-0.2,0.3-0.6,0.9-1.2c0.6-0.5,1.1-0.9,1.5-1c0.8,0.6,1.5,1.6,2.1,3c0.6-0.1,0.9-0.3,0.9-0.9c0-0.8-0.7-1.9-2.1-3.3
				s-2.1-2.6-2.1-3.4c0-0.8,0.4-1.5,1.1-2s1.7-0.7,2.8-0.7s1.9,0.2,2.4,0.6s0.8,0.9,0.8,1.6c0,0.7-0.5,1.6-1.6,2.7
				c0.1,0.1,0.3,0.3,0.5,0.5s0.4,0.6,0.7,1.1C343.5,20.2,343.6,20.7,343.6,21.2z M342.2,15.4c0-0.6-0.4-0.9-1.2-0.9
				c-0.4,0-0.7,0.1-1,0.2c-0.3,0.2-0.4,0.3-0.4,0.5c0,0.4,0.4,0.9,1.1,1.6l0.4,0.3C341.9,16.6,342.2,16,342.2,15.4z"/>
		</g>
	</g>
	<g>
		<polygon class="st4" points="66.6,33.2 1.2,33.2 11,50.2 66.6,50.2 		"/>
		<polygon class="st5" points="11,50.2 19.5,64.9 12.5,77 66.6,77 66.6,50.2 		"/>
		<polygon class="st6" points="1.2,96.7 66.6,96.7 66.6,77 12.5,77 		"/>
		<polygon class="st6" points="468.7,96.7 534.1,96.7 522.7,77 468.7,77 		"/>
		<polygon class="st4" points="534.1,33.2 468.7,33.2 468.7,50.2 524.3,50.2 		"/>
		<polygon class="st5" points="524.3,50.2 468.7,50.2 468.7,77 522.7,77 515.8,64.9 		"/>
	</g>
</g>
</svg>
